<svg width="17" height="12" viewBox="0 0 17 12" fill="none" xmlns="http://www.w3.org/2000/svg">
<path d="M0.679311 12C0.486538 12 0.325088 11.9355 0.194962 11.8065C0.0649875 11.6777 0 11.5177 0 11.3266C0 11.1355 0.0649875 10.9756 0.194962 10.8467C0.325088 10.7177 0.486538 10.6532 0.679311 10.6532H16.3207C16.5135 10.6532 16.6749 10.7177 16.805 10.8467C16.935 10.9756 17 11.1355 17 11.3266C17 11.5177 16.935 11.6777 16.805 11.8065C16.6749 11.9355 16.5135 12 16.3207 12H0.679311ZM0.801135 9.58276V9.03013C0.801135 7.18954 1.40089 5.58067 2.6004 4.20351C3.79992 2.82621 5.31358 1.97752 7.14138 1.65743V1.34678C7.14138 0.979555 7.2752 0.663287 7.54285 0.397972C7.8105 0.132657 8.12955 0 8.5 0C8.87045 0 9.1895 0.132657 9.45715 0.397972C9.7248 0.663287 9.85862 0.979555 9.85862 1.34678V1.65743C11.6956 1.97752 13.2116 2.82621 14.4064 4.20351C15.6014 5.58067 16.1989 7.18954 16.1989 9.03013V9.58276H0.801135ZM2.21365 8.23598H14.7863C14.6097 6.7258 13.9193 5.45325 12.7151 4.41832C11.5109 3.38355 10.1059 2.86616 8.5 2.86616C6.89411 2.86616 5.49133 3.38355 4.29166 4.41832C3.09215 5.45325 2.39948 6.7258 2.21365 8.23598Z" fill="black"/>
</svg>
