<svg width="19" height="19" viewBox="0 0 19 19" fill="none" xmlns="http://www.w3.org/2000/svg">
<path d="M11.0343 6.89645C10.8668 6.89645 10.7265 6.83976 10.6132 6.7264C10.4999 6.61303 10.4432 6.47261 10.4432 6.30512C10.4432 6.13751 10.4999 5.99715 10.6132 5.88404C10.7265 5.77081 10.8668 5.71419 11.0343 5.71419H12.8077V3.15265C12.8077 2.98516 12.8644 2.8448 12.9778 2.73157C13.0911 2.61821 13.2315 2.56152 13.399 2.56152C13.5666 2.56152 13.707 2.61821 13.8201 2.73157C13.9333 2.8448 13.99 2.98516 13.99 3.15265V5.71419H15.7633C15.9308 5.71419 16.0712 5.77088 16.1844 5.88424C16.2978 5.99761 16.3545 6.13803 16.3545 6.30552C16.3545 6.47313 16.2978 6.61349 16.1844 6.7266C16.0712 6.83983 15.9308 6.89645 15.7633 6.89645H11.0343ZM13.3986 16.3545C13.231 16.3545 13.0907 16.2978 12.9776 16.1844C12.8643 16.0712 12.8077 15.9308 12.8077 15.7633V9.45799C12.8077 9.29051 12.8644 9.15015 12.9778 9.03691C13.0911 8.92355 13.2315 8.86687 13.399 8.86687C13.5666 8.86687 13.707 8.92355 13.8201 9.03691C13.9333 9.15015 13.99 9.29051 13.99 9.45799V15.7633C13.99 15.9308 13.9333 16.0712 13.8199 16.1844C13.7065 16.2978 13.5661 16.3545 13.3986 16.3545ZM5.51696 16.3545C5.34934 16.3545 5.20898 16.2978 5.09588 16.1844C4.98264 16.0712 4.92603 15.9308 4.92603 15.7633V13.2018H3.15265C2.98516 13.2018 2.8448 13.1451 2.73157 13.0317C2.61821 12.9184 2.56152 12.778 2.56152 12.6105C2.56152 12.4428 2.61821 12.3025 2.73157 12.1894C2.8448 12.0762 2.98516 12.0195 3.15265 12.0195H7.88166C8.04914 12.0195 8.1895 12.0762 8.30274 12.1896C8.4161 12.3029 8.47278 12.4434 8.47278 12.6109C8.47278 12.7785 8.4161 12.9188 8.30274 13.0319C8.1895 13.1452 8.04914 13.2018 7.88166 13.2018H6.10828V15.7633C6.10828 15.9308 6.0516 16.0712 5.93823 16.1844C5.82487 16.2978 5.68444 16.3545 5.51696 16.3545ZM5.51696 10.0491C5.34934 10.0491 5.20898 9.99244 5.09588 9.87907C4.98264 9.76584 4.92603 9.62548 4.92603 9.45799V3.15265C4.92603 2.98516 4.98271 2.8448 5.09607 2.73157C5.20944 2.61821 5.34986 2.56152 5.51735 2.56152C5.68497 2.56152 5.82533 2.61821 5.93843 2.73157C6.05166 2.8448 6.10828 2.98516 6.10828 3.15265V9.45799C6.10828 9.62548 6.0516 9.76584 5.93823 9.87907C5.82487 9.99244 5.68444 10.0491 5.51696 10.0491Z" fill="#17472F"/>
</svg>
