<svg width="14" height="13" viewBox="0 0 14 13" fill="none" xmlns="http://www.w3.org/2000/svg">
<path d="M3.31579 8.46462H10.6842C10.841 8.46462 10.9723 8.41057 11.0781 8.30248C11.1839 8.19451 11.2368 8.06045 11.2368 7.90031C11.2368 7.74017 11.1839 7.60612 11.0781 7.49815C10.9723 7.39005 10.841 7.336 10.6842 7.336H3.31579C3.15896 7.336 3.02768 7.39005 2.92195 7.49815C2.81609 7.60612 2.76316 7.74017 2.76316 7.90031C2.76316 8.06045 2.81609 8.19451 2.92195 8.30248C3.02768 8.41057 3.15896 8.46462 3.31579 8.46462ZM3.31579 6.20739H10.6842C10.841 6.20739 10.9723 6.15334 11.0781 6.04524C11.1839 5.93727 11.2368 5.80322 11.2368 5.64308C11.2368 5.48294 11.1839 5.34889 11.0781 5.24092C10.9723 5.13282 10.841 5.07877 10.6842 5.07877H3.31579C3.15896 5.07877 3.02768 5.13282 2.92195 5.24092C2.81609 5.34889 2.76316 5.48294 2.76316 5.64308C2.76316 5.80322 2.81609 5.93727 2.92195 6.04524C3.02768 6.15334 3.15896 6.20739 3.31579 6.20739ZM3.31579 3.95016H10.6842C10.841 3.95016 10.9723 3.89611 11.0781 3.78801C11.1839 3.68004 11.2368 3.54599 11.2368 3.38585C11.2368 3.22571 11.1839 3.09166 11.0781 2.98368C10.9723 2.87559 10.841 2.82154 10.6842 2.82154H3.31579C3.15896 2.82154 3.02768 2.87559 2.92195 2.98368C2.81609 3.09166 2.76316 3.22571 2.76316 3.38585C2.76316 3.54599 2.81609 3.68004 2.92195 3.78801C3.02768 3.89611 3.15896 3.95016 3.31579 3.95016ZM1.33203 11.2862C0.959798 11.2862 0.644737 11.1545 0.386842 10.8911C0.128947 10.6278 0 10.3061 0 9.92599V1.36017C0 0.980078 0.128947 0.658359 0.386842 0.395016C0.644737 0.131672 0.959798 0 1.33203 0H12.668C13.0402 0 13.3553 0.131672 13.6132 0.395016C13.8711 0.658359 14 0.980078 14 1.36017V12.3047C14 12.6096 13.8637 12.8206 13.5912 12.9379C13.3186 13.055 13.0775 13.0065 12.8678 12.7923L11.3927 11.2862H1.33203ZM11.8632 10.1575L12.8947 11.1994V1.36017C12.8947 1.30223 12.8711 1.24919 12.8238 1.20104C12.7767 1.15276 12.7247 1.12862 12.668 1.12862H1.33203C1.27529 1.12862 1.22334 1.15276 1.17618 1.20104C1.1289 1.24919 1.10526 1.30223 1.10526 1.36017V9.92599C1.10526 9.98393 1.1289 10.037 1.17618 10.0851C1.22334 10.1334 1.27529 10.1575 1.33203 10.1575H11.8632Z" fill="black"/>
</svg>
