<svg width="249" height="66" viewBox="0 0 249 66" fill="none" xmlns="http://www.w3.org/2000/svg">
<path d="M178.425 65.0824C174.003 65.0824 170.052 64.0875 166.57 62.0978C163.143 60.0527 160.435 57.3169 158.445 53.8901C156.51 50.408 155.543 46.4838 155.543 42.1175C155.543 37.6405 156.51 33.6611 158.445 30.179C160.379 26.697 163.032 23.9887 166.404 22.0542C169.775 20.0645 173.644 19.0696 178.011 19.0696C181.272 19.0696 184.256 19.7053 186.964 20.9765C189.673 22.1924 192.105 24.044 194.26 26.5312C195.034 27.4155 195.31 28.3275 195.089 29.2671C194.868 30.2067 194.26 31.0357 193.265 31.7542C192.491 32.3069 191.635 32.5004 190.695 32.3346C189.756 32.1135 188.899 31.6161 188.125 30.8423C185.417 27.9682 182.045 26.5312 178.011 26.5312C175.192 26.5312 172.705 27.1944 170.549 28.5209C168.393 29.7921 166.708 31.5884 165.492 33.9098C164.276 36.2311 163.668 38.967 163.668 42.1175C163.668 45.1021 164.276 47.7551 165.492 50.0764C166.763 52.3978 168.504 54.2493 170.715 55.6311C172.926 56.9576 175.496 57.6208 178.425 57.6208C180.36 57.6208 182.045 57.3998 183.482 56.9576C184.975 56.4602 186.329 55.714 187.545 54.7191C188.429 54.0006 189.341 53.6137 190.281 53.5585C191.22 53.4479 192.049 53.6966 192.768 54.3046C193.707 55.0784 194.232 55.9627 194.343 56.9576C194.454 57.8972 194.122 58.7539 193.348 59.5277C189.369 63.2308 184.394 65.0824 178.425 65.0824Z" fill="#06AA4C"/>
<path d="M111.272 64.7502C110.387 64.7502 109.558 64.5015 108.785 64.004C108.066 63.4513 107.569 62.7881 107.292 62.0143L95.0222 25.2041C94.58 23.4907 94.58 22.109 95.0222 21.0588C95.5196 19.9534 96.5698 19.4007 98.1726 19.4007C99.2227 19.4007 100.079 19.7047 100.743 20.3127C101.461 20.8654 102.042 21.8326 102.484 23.2144L112.93 55.8793H110.028L119.894 22.5511C120.17 21.6115 120.64 20.8654 121.303 20.3127C121.967 19.7047 122.879 19.4007 124.039 19.4007C125.145 19.4007 126.029 19.7047 126.692 20.3127C127.411 20.8654 127.881 21.6115 128.102 22.5511L136.143 53.8895H134.9L144.683 23.2144C145.457 20.6719 146.894 19.4007 148.994 19.4007C150.541 19.4007 151.592 19.9534 152.144 21.0588C152.697 22.109 152.669 23.4907 152.061 25.2041L139.791 62.0143C139.57 62.7881 139.1 63.4513 138.382 64.004C137.663 64.5015 136.834 64.7502 135.895 64.7502C135.01 64.7502 134.181 64.5015 133.408 64.004C132.634 63.4513 132.136 62.7881 131.915 62.0143L123.376 30.4272H124.205L115.251 62.0143C115.03 62.7881 114.533 63.4513 113.759 64.004C113.04 64.5015 112.211 64.7502 111.272 64.7502Z" fill="#06AA4C"/>
<path d="M67.9514 19.0692C72.373 19.0692 76.2972 20.0638 79.7239 22.0535C83.1507 23.988 85.8314 26.6965 87.7659 30.1785C89.7556 33.6053 90.7502 37.5849 90.7502 42.117C90.7502 46.5939 89.7833 50.5735 87.8489 54.0555C85.9144 57.4822 83.2337 60.1907 79.8069 62.1805C76.3802 64.1149 72.4282 65.0818 67.9514 65.0818C63.4746 65.0818 59.5226 64.1148 56.0959 62.1805C52.6692 60.1908 49.9607 57.4822 47.9709 54.0555C46.0365 50.5735 45.0696 46.5939 45.0696 42.117C45.0696 37.5848 46.0365 33.6053 47.9709 30.1785C49.9607 26.6965 52.6692 23.988 56.0959 22.0535C59.5227 20.0639 63.4746 19.0692 67.9514 19.0692ZM67.9514 26.5311C65.0773 26.5311 62.5343 27.1938 60.3235 28.5203C58.1128 29.8468 56.372 31.6985 55.1008 34.075C53.8296 36.3964 53.1936 39.0771 53.1936 42.117C53.1936 45.1568 53.8296 47.8377 55.1008 50.159C56.372 52.4802 58.1128 54.3042 60.3235 55.6307C62.5343 56.9572 65.0773 57.6199 67.9514 57.6199C70.8253 57.6199 73.3676 56.9571 75.5784 55.6307C77.7892 54.3042 79.503 52.4803 80.719 50.159C81.9902 47.8377 82.6252 45.1568 82.6252 42.117C82.6252 39.0772 81.9902 36.3964 80.719 34.075C79.503 31.6984 77.7892 29.8468 75.5784 28.5203C73.3676 27.1939 70.8253 26.5311 67.9514 26.5311ZM69.0012 29.5418C74.4433 29.5418 80.175 33.4746 80.175 40.7147C80.1748 42.3059 78.8835 43.5973 77.2922 43.5975C75.7007 43.5974 74.4106 42.3058 74.4104 40.7147C74.4103 37.2024 71.8337 35.3065 69.0012 35.3065C67.4099 35.3062 66.1195 34.015 66.1194 32.4236C66.1196 30.8325 67.41 29.5421 69.0012 29.5418Z" fill="#06AA4C"/>
<path d="M220.494 19.0692C224.916 19.0692 228.84 20.0638 232.267 22.0535C235.693 23.988 238.374 26.6965 240.309 30.1785C242.298 33.6053 243.293 37.5849 243.293 42.117C243.293 46.0491 242.546 49.5969 241.054 52.7615L247.458 58.7098C248.927 60.0739 249.014 62.3714 247.65 63.8406C246.286 65.3095 243.99 65.3936 242.521 64.0301L236.833 58.7508C235.516 60.0646 234.022 61.2092 232.35 62.1805C228.923 64.1149 224.971 65.0818 220.494 65.0818C216.017 65.0818 212.065 64.1148 208.639 62.1805C205.212 60.1908 202.503 57.4822 200.514 54.0555C198.579 50.5735 197.612 46.5939 197.612 42.117C197.612 37.5848 198.579 33.6053 200.514 30.1785C202.503 26.6965 205.212 23.988 208.639 22.0535C212.065 20.0639 216.017 19.0692 220.494 19.0692ZM220.494 26.5311C217.62 26.5311 215.077 27.1938 212.866 28.5203C210.656 29.8468 208.915 31.6985 207.644 34.075C206.372 36.3964 205.736 39.0771 205.736 42.117C205.736 45.1568 206.372 47.8377 207.644 50.159C208.915 52.4802 210.656 54.3042 212.866 55.6307C215.077 56.9572 217.62 57.6199 220.494 57.6199C223.368 57.6199 225.91 56.9571 228.121 55.6307C230.332 54.3042 232.046 52.4803 233.262 50.159C234.533 47.8377 235.168 45.1568 235.168 42.117C235.168 39.0772 234.533 36.3964 233.262 34.075C232.046 31.6984 230.332 29.8468 228.121 28.5203C225.91 27.1939 223.368 26.5311 220.494 26.5311ZM221.001 29.5418C226.443 29.5418 232.175 33.4745 232.175 40.7147C232.175 42.306 230.883 43.5973 229.292 43.5975C227.701 43.5973 226.41 42.3058 226.41 40.7147C226.41 37.2023 223.833 35.3065 221.001 35.3065C219.41 35.3061 218.119 34.0149 218.119 32.4236C218.119 30.8325 219.41 29.5421 221.001 29.5418Z" fill="#EE6612"/>
<path d="M4.2282 64.7495C3.01225 64.7495 1.98974 64.3349 1.16068 63.5059C0.386894 62.6768 0 61.6543 0 60.4384V4.3111C0 3.09515 0.414529 2.07264 1.24359 1.24359C2.07265 0.414529 3.06752 0 4.2282 0C5.44415 0 6.46665 0.414529 7.29571 1.24359C8.12477 2.07264 8.5393 3.09515 8.5393 4.3111V56.1272H38.5512C39.7672 56.1272 40.7897 56.5418 41.6187 57.3708C42.4478 58.1999 42.8623 59.2224 42.8623 60.4384C42.8623 61.6543 42.4478 62.6768 41.6187 63.5059C40.7897 64.3349 39.7672 64.7495 38.5512 64.7495H4.2282Z" fill="#06AA4C"/>
</svg>
